<svg width="192" height="145" viewBox="0 0 192 145" fill="none" xmlns="http://www.w3.org/2000/svg">
<path d="M92.1881 115.02C79.6601 133.056 67.2941 144.018 53.7941 144.018C78.2021 144.018 99.7481 124.794 118.432 86.346C131.068 86.67 143.218 85.104 154.882 81.648C164.494 78.732 172.54 74.682 179.02 69.498C187.336 62.802 191.494 55.242 191.494 46.818C191.494 38.178 187.174 30.834 178.534 24.786C175.186 22.41 171.46 20.412 167.356 18.792C163.252 17.172 158.716 15.822 153.748 14.742C149.752 13.878 145.648 13.23 141.436 12.798C137.224 12.366 132.85 12.15 128.314 12.15H120.538C120.754 7.722 120.592 3.942 120.052 0.809999C120.052 0.27 119.89 0 119.566 0C118.918 0 118.594 0.432001 118.594 1.296V12.312C107.945 12.7791 97.8618 14.1752 88.344 16.5006C88.0118 16.6405 86.1545 17.2273 86.612 18.676C86.8192 19.7579 88.6704 20.4612 88.4061 20.3251C97.9367 17.247 107.891 15.494 118.27 15.066C117.838 19.602 117.19 24.3 116.326 29.16C115.57 33.912 114.49 38.826 113.086 43.902L109.522 56.052C107.038 63.612 104.068 71.064 100.612 78.408C97.2641 85.644 93.4841 92.772 89.2721 99.792L79.112 115.02C68.6992 127.721 74.304 125.749 78.408 123.176C82.188 116.696 100.18 83.808 103.204 77.112C106.228 70.308 108.928 63.45 111.304 56.538L115.354 43.092C116.758 38.016 117.892 33.156 118.756 28.512C119.62 23.76 120.16 19.224 120.376 14.904H123.616C132.364 14.796 140.95 15.876 149.374 18.144C158.122 20.52 165.574 24.246 171.73 29.322C179.182 35.586 182.908 42.714 182.908 50.706C182.908 57.834 179.722 63.99 173.35 69.174C168.274 73.278 161.794 76.464 153.91 78.732C141.922 82.08 131.392 83.754 122.32 83.754H119.566C126.91 68.202 132.256 52.758 135.604 37.422C136.036 35.586 136.306 34.074 136.414 32.886C136.63 31.698 136.738 30.888 136.738 30.456C136.738 28.836 135.712 28.026 133.66 28.026C130.204 28.026 127.99 29.7 127.018 33.048L125.074 42.12C124.426 45.144 123.724 48.006 122.968 50.706C122.32 53.406 121.564 55.998 120.7 58.482C114.976 76.842 105.472 95.688 92.1881 115.02Z" fill="#403F3F"/>
<path d="M26.082 143.694C17.766 143.694 11.61 140.724 7.614 134.784C3.942 129.492 2.106 122.58 2.106 114.048C2.106 105.408 3.402 98.658 5.994 93.798C6.318 93.258 6.48 92.88 6.48 92.664C6.48 92.124 5.4 91.692 3.24 91.368C1.08 90.828 0 90.234 0 89.586C0 88.506 0.864 87.48 2.592 86.508C4.428 85.536 5.94 85.05 7.128 85.05C7.56 85.05 8.154 85.104 8.91 85.212C9.774 85.32 10.368 85.374 10.692 85.374C13.392 85.374 17.334 85.212 22.518 84.888C27.918 84.564 31.914 84.402 34.506 84.402C39.906 84.402 43.794 84.726 46.17 85.374C50.706 86.67 52.974 89.316 52.974 93.312C52.974 96.336 51.138 98.874 47.466 100.926C47.034 100.926 46.818 100.818 46.818 100.602C46.818 100.278 47.412 99.414 48.6 98.01C49.788 96.498 50.382 95.634 50.382 95.418C50.382 91.53 44.442 89.586 32.562 89.586C31.698 89.586 30.618 89.64 29.322 89.748C28.026 89.748 26.46 89.802 24.624 89.91C22.896 90.018 21.384 90.072 20.088 90.072H16.848H14.58C13.932 90.072 13.338 90.018 12.798 89.91C12.906 90.018 12.96 90.342 12.96 90.882C12.96 91.53 12.636 92.61 11.988 94.122C7.776 102.654 5.67 110.754 5.67 118.422C5.67 124.902 7.506 130.302 11.178 134.622C15.066 139.266 20.196 141.588 26.568 141.588C38.232 141.588 50.166 132.732 62.37 115.02C69.39 104.652 75.924 92.988 81.972 80.028C88.02 66.96 93.528 52.596 98.496 36.936C100.764 30.132 101.898 26.136 101.898 24.948C101.898 24.84 101.844 24.786 101.736 24.786C100.008 24.786 94.986 27.216 86.67 32.076L84.24 33.534C81.432 35.262 78.894 36.99 76.626 38.718C74.466 40.338 72.576 41.958 70.956 43.578C68.256 46.278 65.664 49.896 63.18 54.432C60.264 59.616 58.806 63.666 58.806 66.582C58.806 68.742 59.67 70.308 61.398 71.28C61.938 71.604 62.208 71.874 62.208 72.09C62.208 72.306 61.938 72.414 61.398 72.414C59.346 72.414 57.564 71.604 56.052 69.984C54.648 68.256 53.946 66.366 53.946 64.314C53.946 58.698 57.834 52.164 65.61 44.712C68.418 42.012 71.388 39.474 74.52 37.098C77.76 34.614 81.216 32.292 84.888 30.132L87.318 28.674C95.958 23.814 102.384 21.384 106.596 21.384C108.54 21.384 109.512 22.248 109.512 23.976C109.512 27.648 108.216 34.128 105.624 43.416C96.228 75.492 82.998 101.52 65.934 121.5C61.3216 126.81 56.6535 131.167 51.9298 134.572C51.2612 135.054 50.5914 135.516 49.9206 135.96C42.1249 141.116 34.1787 143.694 26.082 143.694Z" fill="#403F3F"/>
</svg>
