<svg width="396" height="86" viewBox="0 0 396 86" fill="none" xmlns="http://www.w3.org/2000/svg">
<path d="M73.078 72.192C70.07 72.192 67.35 70.944 64.918 68.448C62.55 65.888 61.366 63.104 61.366 60.096C61.366 58.112 61.878 57.12 62.902 57.12C63.542 57.12 64.182 57.6 64.822 58.56C66.742 54.08 69.462 49.024 72.982 43.392C75.222 39.936 77.846 38.208 80.854 38.208C81.494 38.208 82.23 38.432 83.062 38.88C83.958 39.328 84.406 39.872 84.406 40.512C84.406 40.96 83.99 41.184 83.158 41.184C83.094 41.184 82.998 41.184 82.87 41.184C82.742 41.184 82.582 41.152 82.39 41.088H81.622C80.214 41.088 78.966 41.504 77.878 42.336C76.79 43.168 76.246 44.288 76.246 45.696C76.246 46.208 76.342 46.752 76.534 47.328L78.838 55.008C79.35 56.544 79.702 57.984 79.894 59.328C80.086 60.608 80.182 61.792 80.182 62.88C81.91 62.624 83.382 61.984 84.598 60.96C85.366 60.32 86.39 59.04 87.67 57.12C87.862 56.864 88.054 56.736 88.246 56.736C88.438 56.736 88.534 56.864 88.534 57.12C88.534 57.184 88.47 57.408 88.342 57.792C86.166 61.44 83.478 63.584 80.278 64.224C80.086 66.464 79.414 68.32 78.262 69.792C77.046 71.392 75.318 72.192 73.078 72.192ZM76.246 64.128C76.31 63.872 76.342 63.648 76.342 63.456C76.342 63.264 76.342 63.04 76.342 62.784C76.342 61.952 76.182 60.832 75.862 59.424C75.606 57.952 75.222 56.16 74.71 54.048C73.75 50.016 73.398 47.328 73.654 45.984C71.99 47.712 69.27 52.32 65.494 59.808C66.71 60.448 67.734 61.024 68.566 61.536C69.462 61.984 70.166 62.336 70.678 62.592C71.702 63.04 72.662 63.392 73.558 63.648C74.518 63.904 75.414 64.064 76.246 64.128ZM71.062 69.024C73.622 69.024 75.318 67.776 76.15 65.28C71.03 65.28 67.126 64.224 64.438 62.112C64.566 63.52 65.334 65.056 66.742 66.72C68.214 68.256 69.654 69.024 71.062 69.024Z" fill="white"/>
<path d="M105.517 72.384C103.789 72.384 102.445 71.488 101.485 69.696C100.717 68.224 100.333 66.528 100.333 64.608C100.333 63.648 100.397 62.592 100.525 61.44C100.717 60.224 100.973 58.912 101.293 57.504C97.261 66.464 93.101 70.944 88.813 70.944C86.189 70.944 84.877 69.248 84.877 65.856C84.877 60.416 87.501 54.784 92.749 48.96C98.061 43.008 103.341 40.032 108.589 40.032C111.085 40.032 112.333 41.12 112.333 43.296C112.333 45.984 110.541 48.672 106.957 51.36C105.101 55.968 104.173 60.704 104.173 65.568C104.173 69.216 104.973 71.04 106.573 71.04C108.813 71.04 112.653 67.008 118.093 58.944C118.477 58.432 118.765 58.176 118.957 58.176C119.149 58.176 119.245 58.304 119.245 58.56C119.245 58.88 119.117 59.2 118.861 59.52C113.101 68.096 108.653 72.384 105.517 72.384ZM89.197 67.968C93.229 67.968 97.133 63.488 100.909 54.528C100.397 54.656 99.917 54.784 99.469 54.912C99.085 54.976 98.733 55.008 98.413 55.008C98.157 55.008 98.029 54.912 98.029 54.72C98.029 54.4 98.477 54.08 99.373 53.76L102.349 52.032C102.477 50.944 103.149 49.536 104.365 47.808C105.581 46.016 106.733 45.12 107.821 45.12C108.205 45.12 108.397 45.408 108.397 45.984C108.397 46.432 108.237 47.136 107.917 48.096C108.941 46.688 109.453 45.312 109.453 43.968C109.453 42.496 108.781 41.76 107.437 41.76C104.237 41.76 100.045 44.928 94.861 51.264C89.677 57.472 87.085 62.304 87.085 65.76C87.085 67.232 87.789 67.968 89.197 67.968Z" fill="white"/>
<path d="M117.404 76.32C116.956 76.32 116.732 75.776 116.732 74.688C116.732 73.984 116.828 73.12 117.02 72.096C115.548 71.2 114.812 70.08 114.812 68.736C114.812 66.624 116.508 64.544 119.9 62.496C120.412 60.96 120.988 59.296 121.628 57.504C122.268 55.712 123.004 53.824 123.836 51.84C123.26 52.416 122.62 53.088 121.916 53.856C121.212 54.624 120.412 55.52 119.516 56.544C119.196 56.864 118.94 57.024 118.748 57.024C118.556 57.024 118.46 56.896 118.46 56.64C118.46 55.616 120.604 53.152 124.892 49.248C127.644 42.464 130.396 35.904 133.148 29.568C135.964 23.232 138.78 17.088 141.596 11.136C141.852 10.624 142.172 10.016 142.556 9.31197C142.94 8.54397 143.388 7.64797 143.9 6.62397C144.604 5.53597 145.916 4.99197 147.836 4.99197C149.052 4.99197 149.66 5.27997 149.66 5.85597C149.66 5.91997 149.596 6.07997 149.468 6.33597C145.564 13.888 142.012 20.864 138.812 27.264C135.612 33.664 132.796 39.488 130.364 44.736C135.484 41.088 139.516 39.264 142.46 39.264C145.532 39.264 147.068 41.376 147.068 45.6C147.068 49.248 145.916 53.184 143.612 57.408C145.404 57.472 146.3 57.792 146.3 58.368C146.3 58.624 146.108 58.752 145.724 58.752C145.404 58.752 144.924 58.72 144.284 58.656C143.644 58.592 143.196 58.56 142.94 58.56C140.508 62.528 137.532 65.856 134.012 68.544C129.916 71.616 125.82 73.152 121.724 73.152C120.444 73.152 119.388 73.024 118.556 72.768L118.268 74.784C118.076 75.808 117.788 76.32 117.404 76.32ZM123.068 60.864C127.996 58.816 133.66 57.632 140.06 57.312C141.02 54.624 141.5 51.36 141.5 47.52C141.5 44.32 140.412 42.72 138.236 42.72C135.996 42.72 132.988 44.192 129.212 47.136C127.996 49.76 126.876 52.224 125.852 54.528C124.828 56.832 123.9 58.944 123.068 60.864ZM121.34 71.328C125.052 71.328 128.636 70.08 132.092 67.584C135.612 65.024 138.076 62.016 139.484 58.56C133.212 59.072 127.292 60.864 121.724 63.936L119.036 71.136C119.356 71.2 119.708 71.264 120.092 71.328C120.476 71.328 120.892 71.328 121.34 71.328ZM117.5 70.272C117.628 69.632 117.788 68.992 117.98 68.352C118.172 67.648 118.396 66.88 118.652 66.048C117.5 67.072 116.924 68.064 116.924 69.024C116.924 69.472 117.116 69.888 117.5 70.272Z" fill="white"/>
<path d="M154.417 72.864C149.873 72.864 147.601 69.92 147.601 64.032C147.601 63.136 147.633 62.176 147.697 61.152C147.825 60.064 148.017 58.912 148.273 57.696C148.017 57.504 147.761 57.248 147.505 56.928C147.249 56.544 146.993 56.096 146.737 55.584C146.993 55.648 147.249 55.776 147.505 55.968C147.825 56.096 148.209 56.224 148.657 56.352C149.361 53.152 151.281 49.984 154.417 46.848C157.809 43.392 161.009 41.664 164.017 41.664C164.721 41.664 165.073 41.76 165.073 41.952C165.073 42.08 164.625 42.4 163.729 42.912C161.361 44.192 159.121 46.176 157.009 48.864C154.897 51.616 153.361 54.304 152.401 56.928L152.593 57.12C155.665 57.12 158.865 55.648 162.193 52.704C165.521 49.76 167.185 46.752 167.185 43.68C167.185 42.72 166.929 41.856 166.417 41.088C165.905 40.32 165.201 39.936 164.305 39.936C163.025 39.936 161.585 40.448 159.985 41.472C158.385 42.432 157.489 42.912 157.297 42.912C157.169 42.912 157.105 42.88 157.105 42.816C157.105 42.048 158.225 41.216 160.465 40.32C162.385 39.552 163.889 39.168 164.977 39.168C166.449 39.168 167.665 39.584 168.625 40.416C169.649 41.248 170.161 42.4 170.161 43.872C170.161 47.264 167.953 50.56 163.537 53.76C159.569 56.576 155.729 58.144 152.017 58.464C151.505 60 151.249 61.472 151.249 62.88C151.249 68.192 153.169 70.848 157.009 70.848C159.953 70.848 163.025 69.568 166.225 67.008C168.913 64.896 171.153 62.336 172.945 59.328C173.521 58.432 174.001 57.984 174.385 57.984C174.449 57.984 174.481 58.048 174.481 58.176C174.481 58.432 174.225 59.008 173.713 59.904C171.729 63.04 168.945 65.92 165.361 68.544C161.457 71.424 157.809 72.864 154.417 72.864Z" fill="white"/>
<path d="M181.193 71.04C177.993 71.04 176.393 69.408 176.393 66.144C176.393 62.624 178.025 56.448 181.289 47.616C179.689 49.792 178.569 50.88 177.929 50.88C177.737 50.88 177.641 50.784 177.641 50.592C177.641 50.528 178.473 49.408 180.137 47.232C180.969 46.144 181.609 45.312 182.057 44.736C182.569 44.096 182.857 43.68 182.921 43.488C183.241 42.592 183.689 41.44 184.265 40.032C184.841 38.624 185.513 37.024 186.281 35.232C187.689 32.032 189.129 28.832 190.601 25.632C192.073 22.368 193.609 19.104 195.209 15.84C195.721 14.752 196.361 13.44 197.129 11.904C197.961 10.368 198.921 8.60797 200.009 6.62397C200.713 5.53597 202.025 4.99197 203.945 4.99197C205.097 4.99197 205.673 5.27997 205.673 5.85597C205.673 6.04797 205.641 6.20797 205.577 6.33597L200.393 17.856L198.281 22.464C197.833 22.72 197.257 23.2 196.553 23.904C196.553 23.904 196.201 24.576 195.497 25.92C194.857 27.264 193.833 29.248 192.425 31.872C183.401 49.408 178.889 60.864 178.889 66.24C178.889 68.352 179.593 69.408 181.001 69.408C182.601 69.408 184.489 68.512 186.665 66.72C188.905 64.864 189.961 63.936 189.833 63.936C190.089 63.936 190.217 64.064 190.217 64.32C190.217 64.576 190.089 64.832 189.833 65.088C187.017 69.056 184.137 71.04 181.193 71.04Z" fill="white"/>
<path d="M15.76 85.344C10.832 85.344 7.18399 83.584 4.81599 80.064C2.63999 76.928 1.55199 72.832 1.55199 67.776C1.55199 62.656 2.31999 58.656 3.85599 55.776C4.04799 55.456 4.14399 55.232 4.14399 55.104C4.14399 54.784 3.50399 54.528 2.22399 54.336C0.943986 54.016 0.303986 53.664 0.303986 53.28C0.303986 52.64 0.815986 52.032 1.83999 51.456C2.92799 50.88 3.82399 50.592 4.52799 50.592C4.78399 50.592 5.13599 50.624 5.58399 50.688C6.09599 50.752 6.44799 50.784 6.63999 50.784C8.23999 50.784 10.576 50.688 13.648 50.496C16.848 50.304 19.216 50.208 20.752 50.208C23.952 50.208 26.256 50.4 27.664 50.784C30.352 51.552 31.696 53.12 31.696 55.488C31.696 57.28 30.608 58.784 28.432 60C28.176 60 28.048 59.936 28.048 59.808C28.048 59.616 28.4 59.104 29.104 58.272C29.808 57.376 30.16 56.864 30.16 56.736C30.16 54.432 26.64 53.28 19.6 53.28C19.088 53.28 18.448 53.312 17.68 53.376C16.912 53.376 15.984 53.408 14.896 53.472C13.872 53.536 12.976 53.568 12.208 53.568H10.288H8.94399C8.55999 53.568 8.20799 53.536 7.88799 53.472C7.95199 53.536 7.98399 53.728 7.98399 54.048C7.98399 54.432 7.79199 55.072 7.40799 55.968C4.91199 61.024 3.66399 65.824 3.66399 70.368C3.66399 74.208 4.75199 77.408 6.92799 79.968C9.23199 82.72 12.272 84.096 16.048 84.096C22.96 84.096 30.032 78.848 37.264 68.352C41.424 62.208 45.296 55.296 48.88 47.616C52.464 39.872 55.728 31.36 58.672 22.08C60.016 18.048 60.688 15.68 60.688 14.976C60.688 14.912 60.656 14.88 60.592 14.88C59.568 14.88 56.592 16.32 51.664 19.2C50.448 25.408 48.24 32.992 45.04 41.952L41.68 50.496C40.4 53.44 38.96 56.32 37.36 59.136C35.824 61.888 34.128 64.64 32.272 67.392C27.024 75.264 22.544 79.2 18.832 79.2C17.424 79.2 16.72 78.816 16.72 78.048C16.72 77.728 16.912 77.568 17.296 77.568C17.488 77.568 17.744 77.6 18.064 77.664C18.448 77.728 18.736 77.76 18.928 77.76C22.64 77.76 26.992 73.984 31.984 66.432C35.44 61.184 38.352 55.648 40.72 49.824L43.408 42.624C44.496 40.512 45.616 37.6 46.768 33.888C47.92 30.112 49.072 25.504 50.224 20.064C48.56 21.088 47.056 22.112 45.712 23.136C44.432 24.096 43.312 25.056 42.352 26.016C40.752 27.616 39.216 29.76 37.744 32.448C36.016 35.52 35.152 37.92 35.152 39.648C35.152 40.928 35.664 41.856 36.688 42.432C37.008 42.624 37.168 42.784 37.168 42.912C37.168 43.04 37.008 43.104 36.688 43.104C35.472 43.104 34.416 42.624 33.52 41.664C32.688 40.64 32.272 39.52 32.272 38.304C32.272 34.976 34.576 31.104 39.184 26.688C40.848 25.088 42.608 23.584 44.464 22.176C46.384 20.704 48.432 19.328 50.608 18.048L51.76 10.56C51.824 9.85597 52.016 9.34397 52.336 9.02397C52.592 9.21597 52.72 9.98397 52.72 11.328C52.72 12.096 52.656 12.96 52.528 13.92C52.464 14.88 52.304 15.968 52.048 17.184C57.168 14.304 60.976 12.864 63.472 12.864C64.624 12.864 65.2 13.376 65.2 14.4C65.2 16.576 64.432 20.416 62.896 25.92C57.328 44.928 49.488 60.352 39.376 72.192C31.76 80.96 23.888 85.344 15.76 85.344Z" fill="white"/>
<path d="M290.321 72.672C285.777 72.672 283.505 69.728 283.505 63.84C283.505 62.944 283.537 61.984 283.601 60.96C283.729 59.872 283.921 58.72 284.177 57.504C283.921 57.312 283.665 57.056 283.409 56.736C283.153 56.352 282.897 55.904 282.641 55.392C282.897 55.456 283.153 55.584 283.409 55.776C283.729 55.904 284.113 56.032 284.561 56.16C285.265 52.96 287.185 49.792 290.321 46.656C293.713 43.2 296.913 41.472 299.921 41.472C300.625 41.472 300.977 41.568 300.977 41.76C300.977 41.888 300.529 42.208 299.633 42.72C297.265 44 295.025 45.984 292.913 48.672C290.801 51.424 289.265 54.112 288.305 56.736L288.497 56.928C291.569 56.928 294.769 55.456 298.097 52.512C301.425 49.568 303.089 46.56 303.089 43.488C303.089 42.528 302.833 41.664 302.321 40.896C301.809 40.128 301.105 39.744 300.209 39.744C298.929 39.744 297.489 40.256 295.889 41.28C294.289 42.24 293.393 42.72 293.201 42.72C293.073 42.72 293.009 42.688 293.009 42.624C293.009 41.856 294.129 41.024 296.369 40.128C298.289 39.36 299.793 38.976 300.881 38.976C302.353 38.976 303.569 39.392 304.529 40.224C305.553 41.056 306.065 42.208 306.065 43.68C306.065 47.072 303.857 50.368 299.441 53.568C295.473 56.384 291.633 57.952 287.921 58.272C287.409 59.808 287.153 61.28 287.153 62.688C287.153 68 289.073 70.656 292.913 70.656C295.857 70.656 298.929 69.376 302.129 66.816C304.817 64.704 307.057 62.144 308.849 59.136C309.425 58.24 309.905 57.792 310.289 57.792C310.353 57.792 310.385 57.856 310.385 57.984C310.385 58.24 310.129 58.816 309.617 59.712C307.633 62.848 304.849 65.728 301.265 68.352C297.361 71.232 293.713 72.672 290.321 72.672Z" fill="white"/>
<path d="M332.458 72.48C328.746 72.48 326.889 69.792 326.889 64.416C326.889 61.792 327.466 57.888 328.618 52.704C325.93 57.952 323.786 61.632 322.186 63.744C318.794 68.48 315.626 70.848 312.682 70.848C309.674 70.848 308.169 68.864 308.169 64.896C308.169 58.816 311.402 52.352 317.866 45.504C324.33 38.656 330.665 34.88 336.874 34.176C338.282 30.784 339.658 27.552 341.001 24.48C342.345 21.408 343.626 18.496 344.842 15.744C345.354 14.656 345.93 13.408 346.57 12C347.274 10.592 348.042 9.024 348.874 7.296C349.962 5.824 351.689 5.088 354.057 5.088C354.953 5.088 355.402 5.312 355.402 5.76C355.402 5.76 355.338 5.888 355.21 6.144C354.698 7.168 353.993 8.48 353.098 10.08C352.266 11.68 351.305 13.504 350.217 15.552C348.49 18.88 346.794 22.176 345.13 25.44C343.53 28.64 341.994 31.744 340.522 34.752C341.29 34.944 341.674 35.52 341.674 36.48C341.674 37.76 340.874 39.68 339.273 42.24C337.738 44.8 336.458 46.464 335.434 47.232C334.794 48.448 334.217 49.856 333.706 51.456C333.194 53.056 332.681 54.784 332.169 56.64C331.721 58.496 331.369 60.224 331.113 61.824C330.921 63.424 330.826 64.864 330.826 66.144C330.826 69.28 331.658 70.848 333.322 70.848C335.242 70.848 337.577 69.12 340.329 65.664C341.225 64.576 342.954 61.984 345.514 57.888C345.834 57.504 346.058 57.312 346.186 57.312C346.378 57.312 346.474 57.408 346.474 57.6C346.474 57.6 346.41 57.792 346.281 58.176C341.354 67.712 336.746 72.48 332.458 72.48ZM313.161 67.296C317.833 67.296 322.41 62.08 326.889 51.648C325.673 52.032 324.682 52.224 323.914 52.224C323.658 52.224 323.53 52.096 323.53 51.84C323.53 51.456 323.978 51.136 324.874 50.88C325.77 50.56 326.826 49.984 328.042 49.152C328.298 48.512 328.554 47.808 328.81 47.04C329.13 46.208 329.418 45.312 329.674 44.352C329.866 43.84 330.09 43.584 330.346 43.584C330.794 43.584 331.018 43.872 331.018 44.448C331.018 45.024 330.73 46.08 330.154 47.616L331.882 46.368L335.914 36.384C331.178 37.408 325.802 40.896 319.786 46.848C313.642 53.056 310.57 58.464 310.57 63.072C310.57 65.888 311.434 67.296 313.161 67.296Z" fill="white"/>
<path d="M348.883 72.096C348.435 72.096 347.859 71.904 347.155 71.52C346.451 71.072 346.099 70.656 346.099 70.272L347.251 67.68C348.339 65.184 349.363 62.752 350.323 60.384C351.347 57.952 352.179 55.52 352.819 53.088C353.459 50.912 353.779 48.224 353.779 45.024C353.587 45.664 353.171 46.592 352.531 47.808C351.891 49.024 351.027 50.56 349.939 52.416C348.915 54.208 347.987 55.712 347.155 56.928C346.387 58.08 345.746 59.008 345.234 59.712C345.234 59.776 345.171 59.808 345.043 59.808C344.723 59.808 344.562 59.68 344.562 59.424C344.562 59.296 344.595 59.2 344.659 59.136L347.635 54.432C349.363 51.68 350.739 49.184 351.763 46.944C352.787 44.64 353.523 42.624 353.971 40.896C354.355 39.232 354.995 38.4 355.891 38.4C356.915 38.4 357.427 39.68 357.427 42.24C357.427 46.848 355.954 52.512 353.01 59.232C356.466 54.88 358.867 52 360.211 50.592C363.859 46.688 366.707 44.736 368.755 44.736C370.803 44.736 371.827 46.08 371.827 48.768C371.827 50.624 371.314 52.256 370.29 53.664C369.074 55.456 367.955 56.352 366.931 56.352C366.739 56.352 366.643 56.224 366.643 55.968C366.643 55.968 366.995 55.168 367.699 53.568C368.403 51.968 368.755 50.592 368.755 49.44C368.755 47.712 368.21 46.848 367.122 46.848C365.458 46.848 362.963 48.8 359.635 52.704C358.227 54.304 357.011 55.808 355.987 57.216C354.963 58.56 354.131 59.776 353.491 60.864C353.427 61.056 353.107 61.824 352.531 63.168C351.955 64.512 351.219 66.496 350.323 69.12L349.363 71.904C349.235 72.032 349.075 72.096 348.883 72.096Z" fill="white"/>
<path d="M374.883 71.52C372.387 71.52 371.139 69.92 371.139 66.72C371.139 62.816 372.611 58.816 375.555 54.72C374.531 52.224 374.019 49.568 374.019 46.752C374.019 44 374.563 41.6 375.651 39.552C377.699 35.52 380.323 33.504 383.523 33.504C387.491 33.504 389.795 36.896 390.435 43.68C392.035 43.744 393.219 44.256 393.987 45.216C394.819 46.112 395.235 47.392 395.235 49.056C395.235 50.336 395.075 51.264 394.755 51.84C394.499 52.352 394.243 52.608 393.987 52.608C393.731 52.608 393.603 52.48 393.603 52.224C393.603 51.904 393.635 51.52 393.699 51.072C393.827 50.624 393.891 50.08 393.891 49.44C393.891 48.544 393.571 47.872 392.931 47.424C392.291 46.912 391.491 46.656 390.531 46.656C389.763 54.464 387.875 60.448 384.867 64.608H387.843C387.011 65.12 386.275 65.376 385.635 65.376C385.507 65.376 385.315 65.344 385.059 65.28C384.867 65.216 384.707 65.184 384.579 65.184C384.707 65.248 383.587 66.304 381.219 68.352C378.723 70.464 376.611 71.52 374.883 71.52ZM376.611 53.664C380.515 48.416 384.611 45.152 388.899 43.872C387.619 38.368 385.859 35.616 383.619 35.616C381.571 35.616 379.683 37.632 377.955 41.664C376.867 44.352 376.323 47.2 376.323 50.208C376.323 51.424 376.419 52.576 376.611 53.664ZM381.795 64.128C383.331 62.72 384.899 59.968 386.499 55.872C388.163 51.648 388.995 48.544 388.995 46.56C387.587 46.752 385.379 48.064 382.371 50.496C379.427 52.864 377.603 54.752 376.899 56.16C378.243 61.024 379.875 63.68 381.795 64.128ZM375.171 68.64C376.963 68.64 379.043 67.296 381.411 64.608C379.299 64.352 377.571 61.824 376.227 57.024C374.115 60.544 373.059 63.296 373.059 65.28C373.059 67.52 373.763 68.64 375.171 68.64Z" fill="white"/>
<path d="M210.416 85.344C205.36 85.344 201.36 83.712 198.416 80.448C195.472 77.184 194 72.96 194 67.776C194 62.336 195.6 57.536 198.8 53.376C202.128 48.896 206.512 46.656 211.952 46.656C213.488 46.656 214.928 47.104 216.272 48C217.68 48.896 218.384 50.048 218.384 51.456C218.384 51.776 218.288 52 218.096 52.128L217.136 50.208C216.496 49.056 215.12 48.48 213.008 48.48C208.336 48.48 204.496 50.88 201.488 55.68C198.864 59.84 197.552 64.384 197.552 69.312C197.552 73.6 198.544 77.056 200.528 79.68C202.768 82.688 205.936 84.192 210.032 84.192C218.032 84.192 225.744 78.848 233.168 68.16C241.04 56.704 246.672 45.536 250.064 34.656C250.576 33.184 251.024 31.648 251.408 30.048C251.856 28.448 252.272 26.752 252.656 24.96L253.808 19.584C254.384 17.6 255.696 16.608 257.744 16.608C258.96 16.608 259.568 17.088 259.568 18.048C259.568 18.304 259.504 18.784 259.376 19.488C259.312 20.192 259.152 21.088 258.896 22.176C256.912 31.264 253.744 40.416 249.392 49.632H251.024C256.4 49.632 262.64 48.64 269.744 46.656C274.416 45.312 278.256 43.424 281.264 40.992C285.04 37.92 286.928 34.272 286.928 30.048C286.928 25.312 284.72 21.088 280.304 17.376C276.656 14.368 272.24 12.16 267.056 10.752C262.064 9.408 256.976 8.768 251.792 8.832H249.872C249.744 11.392 249.424 14.08 248.912 16.896C248.4 19.648 247.728 22.528 246.896 25.536L244.496 33.504C243.088 37.6 241.488 41.664 239.696 45.696C237.904 49.664 235.888 53.568 233.648 57.408C228.272 66.88 222.864 73.6 217.424 77.568C214.288 79.936 211.504 81.12 209.072 81.12C208.432 81.12 208.112 80.896 208.112 80.448C208.112 80.128 208.432 79.904 209.072 79.776C209.712 79.712 210.8 79.456 212.336 79.008C218.544 76.64 224.912 70.016 231.44 59.136C233.936 54.976 236.176 50.752 238.16 46.464C240.208 42.112 241.968 37.696 243.44 33.216L245.552 26.016C246.384 23.008 247.024 20.096 247.472 17.28C247.984 14.4 248.368 11.616 248.624 8.928C242.416 9.184 236.464 10.24 230.768 12.096C224.112 14.336 218.896 17.376 215.12 21.216C212.56 23.84 211.28 26.72 211.28 29.856C211.28 35.04 214.032 38.784 219.536 41.088C220.368 41.536 221.808 41.952 223.856 42.336C224.24 42.4 224.432 42.56 224.432 42.816C224.432 43.2 224.176 43.328 223.664 43.2H223.472C219.44 42.88 215.696 41.248 212.24 38.304C208.528 35.168 206.672 31.616 206.672 27.648C206.672 24.832 207.824 22.24 210.128 19.872C214.032 15.904 220.08 12.768 228.272 10.464C234.672 8.672 241.52 7.616 248.816 7.296V0.768002C248.816 0.256001 249.008 0 249.392 0C249.584 0 249.68 0.16 249.68 0.48C250 2.336 250.096 4.576 249.968 7.2H254.576C257.264 7.2 259.856 7.328 262.352 7.584C264.848 7.84 267.28 8.224 269.648 8.736C272.592 9.376 275.28 10.176 277.712 11.136C280.144 12.096 282.352 13.28 284.336 14.688C289.456 18.272 292.016 22.624 292.016 27.744C292.016 32.736 289.552 37.216 284.624 41.184C280.784 44.256 276.016 46.656 270.32 48.384C263.408 50.432 256.208 51.36 248.72 51.168C237.648 73.952 224.88 85.344 210.416 85.344Z" fill="white"/>
</svg>
