<svg width="1159" height="183" viewBox="0 0 1159 183" fill="none" xmlns="http://www.w3.org/2000/svg">
<path d="M92.1881 115.02C79.6601 133.056 67.2941 144.018 53.7941 144.018C78.2021 144.018 99.7481 124.794 118.432 86.346C131.068 86.67 143.218 85.104 154.882 81.648C164.494 78.732 172.54 74.682 179.02 69.498C187.336 62.802 191.494 55.242 191.494 46.818C191.494 38.178 187.174 30.834 178.534 24.786C175.186 22.41 171.46 20.412 167.356 18.792C163.252 17.172 158.716 15.822 153.748 14.742C149.752 13.878 145.648 13.23 141.436 12.798C137.224 12.366 132.85 12.15 128.314 12.15H120.538C120.754 7.722 120.592 3.942 120.052 0.809999C120.052 0.27 119.89 0 119.566 0C118.918 0 118.594 0.432001 118.594 1.296V12.312C107.945 12.7791 97.8618 14.1752 88.344 16.5006C88.0118 16.6405 86.1545 17.2273 86.612 18.676C86.8192 19.7579 88.6704 20.4612 88.4061 20.3251C97.9367 17.247 107.891 15.494 118.27 15.066C117.838 19.602 117.19 24.3 116.326 29.16C115.57 33.912 114.49 38.826 113.086 43.902L109.522 56.052C107.038 63.612 104.068 71.064 100.612 78.408C97.2641 85.644 93.4841 92.772 89.2721 99.792L79.112 115.02C68.6992 127.721 74.304 125.749 78.408 123.176C82.188 116.696 100.18 83.808 103.204 77.112C106.228 70.308 108.928 63.45 111.304 56.538L115.354 43.092C116.758 38.016 117.892 33.156 118.756 28.512C119.62 23.76 120.16 19.224 120.376 14.904H123.616C132.364 14.796 140.95 15.876 149.374 18.144C158.122 20.52 165.574 24.246 171.73 29.322C179.182 35.586 182.908 42.714 182.908 50.706C182.908 57.834 179.722 63.99 173.35 69.174C168.274 73.278 161.794 76.464 153.91 78.732C141.922 82.08 131.392 83.754 122.32 83.754H119.566C126.91 68.202 132.256 52.758 135.604 37.422C136.036 35.586 136.306 34.074 136.414 32.886C136.63 31.698 136.738 30.888 136.738 30.456C136.738 28.836 135.712 28.026 133.66 28.026C130.204 28.026 127.99 29.7 127.018 33.048L125.074 42.12C124.426 45.144 123.724 48.006 122.968 50.706C122.32 53.406 121.564 55.998 120.7 58.482C114.976 76.842 105.472 95.688 92.1881 115.02Z" fill="#403F3F"/>
<path d="M26.082 143.694C17.766 143.694 11.61 140.724 7.614 134.784C3.942 129.492 2.106 122.58 2.106 114.048C2.106 105.408 3.402 98.658 5.994 93.798C6.318 93.258 6.48 92.88 6.48 92.664C6.48 92.124 5.4 91.692 3.24 91.368C1.08 90.828 0 90.234 0 89.586C0 88.506 0.864 87.48 2.592 86.508C4.428 85.536 5.94 85.05 7.128 85.05C7.56 85.05 8.154 85.104 8.91 85.212C9.774 85.32 10.368 85.374 10.692 85.374C13.392 85.374 17.334 85.212 22.518 84.888C27.918 84.564 31.914 84.402 34.506 84.402C39.906 84.402 43.794 84.726 46.17 85.374C50.706 86.67 52.974 89.316 52.974 93.312C52.974 96.336 51.138 98.874 47.466 100.926C47.034 100.926 46.818 100.818 46.818 100.602C46.818 100.278 47.412 99.414 48.6 98.01C49.788 96.498 50.382 95.634 50.382 95.418C50.382 91.53 44.442 89.586 32.562 89.586C31.698 89.586 30.618 89.64 29.322 89.748C28.026 89.748 26.46 89.802 24.624 89.91C22.896 90.018 21.384 90.072 20.088 90.072H16.848H14.58C13.932 90.072 13.338 90.018 12.798 89.91C12.906 90.018 12.96 90.342 12.96 90.882C12.96 91.53 12.636 92.61 11.988 94.122C7.776 102.654 5.67 110.754 5.67 118.422C5.67 124.902 7.506 130.302 11.178 134.622C15.066 139.266 20.196 141.588 26.568 141.588C38.232 141.588 50.166 132.732 62.37 115.02C69.39 104.652 75.924 92.988 81.972 80.028C88.02 66.96 93.528 52.596 98.496 36.936C100.764 30.132 101.898 26.136 101.898 24.948C101.898 24.84 101.844 24.786 101.736 24.786C100.008 24.786 94.986 27.216 86.67 32.076L84.24 33.534C81.432 35.262 78.894 36.99 76.626 38.718C74.466 40.338 72.576 41.958 70.956 43.578C68.256 46.278 65.664 49.896 63.18 54.432C60.264 59.616 58.806 63.666 58.806 66.582C58.806 68.742 59.67 70.308 61.398 71.28C61.938 71.604 62.208 71.874 62.208 72.09C62.208 72.306 61.938 72.414 61.398 72.414C59.346 72.414 57.564 71.604 56.052 69.984C54.648 68.256 53.946 66.366 53.946 64.314C53.946 58.698 57.834 52.164 65.61 44.712C68.418 42.012 71.388 39.474 74.52 37.098C77.76 34.614 81.216 32.292 84.888 30.132L87.318 28.674C95.958 23.814 102.384 21.384 106.596 21.384C108.54 21.384 109.512 22.248 109.512 23.976C109.512 27.648 108.216 34.128 105.624 43.416C96.228 75.492 82.998 101.52 65.934 121.5C61.3216 126.81 56.6535 131.167 51.9298 134.572C51.2612 135.054 50.5914 135.516 49.9206 135.96C42.1249 141.116 34.1787 143.694 26.082 143.694Z" fill="#403F3F"/>
<path d="M307.574 144.978C303.862 144.978 300.822 144.21 298.454 142.674C296.15 141.074 294.294 139.026 292.886 136.53H292.31L290.582 144.018H275.222V139.986H275.99C277.462 139.986 278.774 139.826 279.926 139.506C281.142 139.186 282.102 138.546 282.806 137.586C283.51 136.562 283.862 135.058 283.862 133.074V81.618C283.862 79.698 283.478 78.29 282.71 77.394C282.006 76.434 281.046 75.826 279.83 75.57C278.678 75.25 277.398 75.09 275.99 75.09H275.222V71.058H292.886V88.722C292.886 89.81 292.854 91.218 292.79 92.946C292.79 94.61 292.758 96.242 292.694 97.842C292.63 99.378 292.566 100.498 292.502 101.202H292.886C294.358 98.258 296.246 95.922 298.55 94.194C300.854 92.466 303.862 91.602 307.574 91.602C313.91 91.602 318.742 93.746 322.07 98.034C325.462 102.258 327.158 108.978 327.158 118.194C327.158 124.338 326.39 129.394 324.854 133.362C323.382 137.33 321.174 140.274 318.23 142.194C315.35 144.05 311.798 144.978 307.574 144.978ZM306.038 138.834C308.854 138.834 311.126 138.034 312.854 136.434C314.582 134.834 315.83 132.498 316.598 129.426C317.43 126.354 317.846 122.578 317.846 118.098C317.846 113.554 317.43 109.778 316.598 106.77C315.83 103.762 314.582 101.522 312.854 100.05C311.126 98.514 308.822 97.746 305.942 97.746C300.95 97.746 297.526 99.442 295.67 102.834C293.814 106.162 292.886 111.282 292.886 118.194C292.886 122.61 293.27 126.354 294.038 129.426C294.87 132.498 296.246 134.834 298.166 136.434C300.086 138.034 302.71 138.834 306.038 138.834ZM360.015 144.978C353.103 144.978 347.663 142.77 343.695 138.354C339.727 133.938 337.743 127.218 337.743 118.194C337.743 109.234 339.631 102.578 343.407 98.226C347.247 93.81 352.879 91.602 360.303 91.602C367.215 91.602 372.655 93.81 376.623 98.226C380.591 102.578 382.575 109.234 382.575 118.194C382.575 127.218 380.655 133.938 376.815 138.354C373.039 142.77 367.439 144.978 360.015 144.978ZM360.207 139.986C363.407 139.986 365.967 139.186 367.887 137.586C369.807 135.922 371.183 133.458 372.015 130.194C372.847 126.93 373.263 122.93 373.263 118.194C373.263 113.394 372.815 109.426 371.919 106.29C371.087 103.09 369.711 100.69 367.791 99.09C365.871 97.49 363.311 96.69 360.111 96.69C356.911 96.69 354.351 97.49 352.431 99.09C350.511 100.69 349.135 103.09 348.303 106.29C347.471 109.426 347.055 113.394 347.055 118.194C347.055 122.93 347.471 126.93 348.303 130.194C349.199 133.458 350.607 135.922 352.527 137.586C354.447 139.186 357.007 139.986 360.207 139.986ZM412.733 144.978C408.509 144.978 404.925 144.05 401.981 142.194C399.101 140.338 396.893 137.458 395.357 133.554C393.885 129.586 393.149 124.53 393.149 118.386C393.149 112.178 393.885 107.122 395.357 103.218C396.893 99.25 399.101 96.338 401.981 94.482C404.925 92.562 408.509 91.602 412.733 91.602C416.445 91.602 419.453 92.402 421.757 94.002C424.125 95.538 426.013 97.554 427.421 100.05H427.997C427.869 98.962 427.741 97.81 427.613 96.594C427.549 95.378 427.485 94.162 427.421 92.946C427.421 91.666 427.421 90.514 427.421 89.49V81.618C427.421 79.698 427.037 78.29 426.269 77.394C425.565 76.434 424.605 75.826 423.389 75.57C422.237 75.25 420.957 75.09 419.549 75.09H418.781V71.058H436.445V133.458C436.445 135.314 436.797 136.722 437.501 137.682C438.269 138.642 439.229 139.282 440.381 139.602C441.597 139.858 442.909 139.986 444.317 139.986H445.085V144.018H428.861L427.805 135.378H427.421C426.013 138.322 424.157 140.658 421.853 142.386C419.549 144.114 416.509 144.978 412.733 144.978ZM414.365 138.834C419.357 138.834 422.781 137.17 424.637 133.842C426.493 130.45 427.421 125.298 427.421 118.386C427.421 113.906 427.005 110.162 426.173 107.154C425.405 104.082 424.061 101.746 422.141 100.146C420.285 98.546 417.661 97.746 414.269 97.746C411.453 97.746 409.181 98.546 407.453 100.146C405.725 101.746 404.445 104.082 403.613 107.154C402.845 110.226 402.461 114.002 402.461 118.482C402.461 123.026 402.845 126.802 403.613 129.81C404.445 132.818 405.725 135.09 407.453 136.626C409.245 138.098 411.549 138.834 414.365 138.834ZM466.518 144.978C463.702 144.978 461.142 144.434 458.838 143.346C456.598 142.194 454.838 140.498 453.558 138.258C452.278 135.954 451.638 133.074 451.638 129.618C451.638 124.498 453.43 120.722 457.014 118.29C460.662 115.858 466.166 114.514 473.526 114.258L481.494 113.97V108.21C481.494 105.906 481.302 103.89 480.918 102.162C480.534 100.37 479.702 98.962 478.422 97.938C477.142 96.914 475.19 96.402 472.566 96.402C470.134 96.402 468.278 96.85 466.998 97.746C465.718 98.642 464.854 99.89 464.406 101.49C464.022 103.026 463.83 104.818 463.83 106.866C461.142 106.866 459.094 106.418 457.686 105.522C456.342 104.562 455.67 102.994 455.67 100.818C455.67 98.578 456.438 96.786 457.974 95.442C459.574 94.098 461.686 93.138 464.31 92.562C466.934 91.922 469.814 91.602 472.95 91.602C478.838 91.602 483.222 92.85 486.102 95.346C489.046 97.842 490.518 102.13 490.518 108.21V133.074C490.518 134.866 490.71 136.274 491.094 137.298C491.478 138.258 492.118 138.962 493.014 139.41C493.91 139.794 495.062 139.986 496.47 139.986H496.758V144.018H483.798L482.262 135.762H481.494C480.15 137.554 478.838 139.154 477.558 140.562C476.278 141.906 474.774 142.994 473.046 143.826C471.382 144.594 469.206 144.978 466.518 144.978ZM468.726 139.026C471.35 139.026 473.59 138.482 475.446 137.394C477.366 136.306 478.838 134.77 479.862 132.786C480.95 130.738 481.494 128.37 481.494 125.682V117.906L475.35 118.194C471.702 118.322 468.822 118.866 466.71 119.826C464.662 120.786 463.19 122.13 462.294 123.858C461.398 125.522 460.95 127.602 460.95 130.098C460.95 132.082 461.238 133.746 461.814 135.09C462.39 136.37 463.254 137.362 464.406 138.066C465.558 138.706 466.998 139.026 468.726 139.026ZM503.14 144.018V139.986H504.388C505.796 139.986 507.076 139.858 508.228 139.602C509.444 139.282 510.404 138.674 511.108 137.778C511.876 136.818 512.26 135.41 512.26 133.554V103.122C512.26 101.202 511.876 99.794 511.108 98.898C510.404 97.938 509.444 97.33 508.228 97.074C507.076 96.754 505.796 96.594 504.388 96.594H504.1V92.562H521.284V133.074C521.284 135.058 521.636 136.562 522.34 137.586C523.044 138.546 524.004 139.186 525.22 139.506C526.436 139.826 527.748 139.986 529.156 139.986H530.404V144.018H503.14ZM516.388 82.962C514.852 82.962 513.54 82.514 512.452 81.618C511.428 80.722 510.916 79.186 510.916 77.01C510.916 74.77 511.428 73.234 512.452 72.402C513.54 71.506 514.852 71.058 516.388 71.058C517.86 71.058 519.14 71.506 520.228 72.402C521.316 73.234 521.86 74.77 521.86 77.01C521.86 79.186 521.316 80.722 520.228 81.618C519.14 82.514 517.86 82.962 516.388 82.962ZM551.842 144.978C548.642 144.978 545.858 144.594 543.49 143.826C541.122 143.058 539.266 141.938 537.922 140.466C536.642 138.93 536.002 137.042 536.002 134.802C536.002 133.074 536.354 131.73 537.058 130.77C537.762 129.81 538.562 129.138 539.458 128.754C540.418 128.37 541.282 128.178 542.05 128.178C542.05 130.418 542.37 132.466 543.01 134.322C543.65 136.178 544.738 137.65 546.274 138.738C547.81 139.826 549.858 140.37 552.418 140.37C555.81 140.37 558.402 139.57 560.194 137.97C562.05 136.306 562.978 134.194 562.978 131.634C562.978 130.034 562.626 128.722 561.922 127.698C561.282 126.674 560.098 125.682 558.37 124.722C556.706 123.698 554.306 122.514 551.17 121.17C547.906 119.698 545.186 118.29 543.01 116.946C540.898 115.538 539.298 113.938 538.21 112.146C537.186 110.29 536.674 107.986 536.674 105.234C536.674 100.882 538.306 97.554 541.57 95.25C544.898 92.882 549.282 91.698 554.722 91.698C557.794 91.698 560.354 92.114 562.402 92.946C564.514 93.714 566.082 94.77 567.106 96.114C568.194 97.458 568.738 98.93 568.738 100.53C568.738 102.258 568.13 103.666 566.914 104.754C565.762 105.778 564.066 106.29 561.826 106.29C561.826 103.09 561.154 100.594 559.81 98.802C558.466 97.01 556.386 96.114 553.57 96.114C551.394 96.114 549.634 96.434 548.29 97.074C546.946 97.714 545.954 98.61 545.314 99.762C544.738 100.914 544.45 102.258 544.45 103.794C544.45 105.394 544.834 106.738 545.602 107.826C546.434 108.914 547.714 109.938 549.442 110.898C551.234 111.794 553.538 112.818 556.354 113.97C559.746 115.378 562.498 116.786 564.61 118.194C566.722 119.602 568.258 121.234 569.218 123.09C570.242 124.946 570.754 127.218 570.754 129.906C570.754 134.898 569.026 138.674 565.57 141.234C562.114 143.73 557.538 144.978 551.842 144.978ZM594.674 144.978C591.858 144.978 589.298 144.434 586.994 143.346C584.754 142.194 582.994 140.498 581.714 138.258C580.434 135.954 579.794 133.074 579.794 129.618C579.794 124.498 581.586 120.722 585.17 118.29C588.818 115.858 594.322 114.514 601.682 114.258L609.65 113.97V108.21C609.65 105.906 609.458 103.89 609.074 102.162C608.69 100.37 607.858 98.962 606.578 97.938C605.298 96.914 603.346 96.402 600.722 96.402C598.29 96.402 596.434 96.85 595.154 97.746C593.874 98.642 593.01 99.89 592.562 101.49C592.178 103.026 591.986 104.818 591.986 106.866C589.298 106.866 587.25 106.418 585.842 105.522C584.498 104.562 583.826 102.994 583.826 100.818C583.826 98.578 584.594 96.786 586.13 95.442C587.73 94.098 589.842 93.138 592.466 92.562C595.09 91.922 597.97 91.602 601.106 91.602C606.994 91.602 611.378 92.85 614.258 95.346C617.202 97.842 618.674 102.13 618.674 108.21V133.074C618.674 134.866 618.866 136.274 619.25 137.298C619.634 138.258 620.274 138.962 621.17 139.41C622.066 139.794 623.218 139.986 624.626 139.986H624.914V144.018H611.954L610.418 135.762H609.65C608.306 137.554 606.994 139.154 605.714 140.562C604.434 141.906 602.93 142.994 601.202 143.826C599.538 144.594 597.362 144.978 594.674 144.978ZM596.882 139.026C599.506 139.026 601.746 138.482 603.602 137.394C605.522 136.306 606.994 134.77 608.018 132.786C609.106 130.738 609.65 128.37 609.65 125.682V117.906L603.506 118.194C599.858 118.322 596.978 118.866 594.866 119.826C592.818 120.786 591.346 122.13 590.45 123.858C589.554 125.522 589.106 127.602 589.106 130.098C589.106 132.082 589.394 133.746 589.97 135.09C590.546 136.37 591.41 137.362 592.562 138.066C593.714 138.706 595.154 139.026 596.882 139.026ZM663.168 144.978C659.456 144.978 656.416 144.21 654.048 142.674C651.744 141.074 649.888 139.026 648.48 136.53H647.904L646.176 144.018H630.816V139.986H631.584C633.056 139.986 634.368 139.826 635.52 139.506C636.736 139.186 637.696 138.546 638.4 137.586C639.104 136.562 639.456 135.058 639.456 133.074V81.618C639.456 79.698 639.072 78.29 638.304 77.394C637.6 76.434 636.64 75.826 635.424 75.57C634.272 75.25 632.992 75.09 631.584 75.09H630.816V71.058H648.48V88.722C648.48 89.81 648.448 91.218 648.384 92.946C648.384 94.61 648.352 96.242 648.288 97.842C648.224 99.378 648.16 100.498 648.096 101.202H648.48C649.952 98.258 651.84 95.922 654.144 94.194C656.448 92.466 659.456 91.602 663.168 91.602C669.504 91.602 674.336 93.746 677.664 98.034C681.056 102.258 682.752 108.978 682.752 118.194C682.752 124.338 681.984 129.394 680.448 133.362C678.976 137.33 676.768 140.274 673.824 142.194C670.944 144.05 667.392 144.978 663.168 144.978ZM661.632 138.834C664.448 138.834 666.72 138.034 668.448 136.434C670.176 134.834 671.424 132.498 672.192 129.426C673.024 126.354 673.44 122.578 673.44 118.098C673.44 113.554 673.024 109.778 672.192 106.77C671.424 103.762 670.176 101.522 668.448 100.05C666.72 98.514 664.416 97.746 661.536 97.746C656.544 97.746 653.12 99.442 651.264 102.834C649.408 106.162 648.48 111.282 648.48 118.194C648.48 122.61 648.864 126.354 649.632 129.426C650.464 132.498 651.84 134.834 653.76 136.434C655.68 138.034 658.304 138.834 661.632 138.834ZM715.609 144.978C708.633 144.978 703.161 142.674 699.193 138.066C695.289 133.458 693.337 126.994 693.337 118.674C693.337 109.714 695.193 102.962 698.905 98.418C702.617 93.874 707.865 91.602 714.649 91.602C720.857 91.602 725.721 93.522 729.241 97.362C732.825 101.202 734.617 106.93 734.617 114.546V118.962H702.649C702.777 123.634 703.385 127.442 704.473 130.386C705.561 133.33 707.129 135.506 709.177 136.914C711.289 138.258 713.881 138.93 716.953 138.93C719.193 138.93 721.177 138.61 722.905 137.97C724.697 137.33 726.233 136.498 727.513 135.474C728.857 134.45 729.913 133.362 730.681 132.21C731.129 132.402 731.545 132.786 731.929 133.362C732.313 133.938 732.505 134.642 732.505 135.474C732.505 136.754 731.897 138.13 730.681 139.602C729.465 141.074 727.609 142.354 725.113 143.442C722.617 144.466 719.449 144.978 715.609 144.978ZM724.921 113.778C724.921 110.386 724.569 107.41 723.865 104.85C723.225 102.29 722.137 100.306 720.601 98.898C719.065 97.49 717.017 96.786 714.457 96.786C712.089 96.786 710.073 97.458 708.409 98.802C706.809 100.082 705.529 101.97 704.569 104.466C703.673 106.962 703.097 110.066 702.841 113.778H724.921ZM740.68 144.018V139.986H741.928C743.4 139.986 744.712 139.826 745.864 139.506C747.08 139.186 748.04 138.546 748.744 137.586C749.448 136.562 749.8 135.058 749.8 133.074V81.618C749.8 79.698 749.416 78.29 748.648 77.394C747.944 76.434 746.984 75.826 745.768 75.57C744.616 75.25 743.336 75.09 741.928 75.09H740.68V71.058H758.824V133.074C758.824 135.058 759.176 136.562 759.88 137.586C760.584 138.546 761.544 139.186 762.76 139.506C763.976 139.826 765.288 139.986 766.696 139.986H767.944V144.018H740.68ZM770.878 167.058V163.026H771.646C773.118 163.026 774.43 162.866 775.582 162.546C776.798 162.226 777.758 161.554 778.462 160.53C779.166 159.57 779.518 158.098 779.518 156.114V103.122C779.518 101.202 779.134 99.794 778.366 98.898C777.662 97.938 776.702 97.33 775.486 97.074C774.334 96.754 773.054 96.594 771.646 96.594H770.398V92.562H787.198L788.158 101.202H788.542C790.014 98.258 791.902 95.922 794.206 94.194C796.51 92.466 799.518 91.602 803.23 91.602C809.566 91.602 814.398 93.746 817.726 98.034C821.118 102.258 822.814 108.978 822.814 118.194C822.814 127.474 821.118 134.258 817.726 138.546C814.398 142.834 809.566 144.978 803.23 144.978C799.518 144.978 796.478 144.21 794.11 142.674C791.806 141.074 789.95 139.026 788.542 136.53H788.158C788.286 137.746 788.35 139.058 788.35 140.466C788.414 141.81 788.446 143.09 788.446 144.306C788.51 145.522 788.542 146.546 788.542 147.378V156.594C788.542 158.45 788.894 159.826 789.598 160.722C790.366 161.682 791.326 162.29 792.478 162.546C793.694 162.866 795.006 163.026 796.414 163.026H796.702V167.058H770.878ZM801.694 138.834C804.51 138.834 806.782 138.034 808.51 136.434C810.238 134.834 811.486 132.498 812.254 129.426C813.086 126.354 813.502 122.578 813.502 118.098C813.502 113.554 813.086 109.778 812.254 106.77C811.486 103.762 810.238 101.522 808.51 100.05C806.782 98.514 804.478 97.746 801.598 97.746C798.27 97.746 795.646 98.482 793.726 99.954C791.87 101.426 790.526 103.698 789.694 106.77C788.926 109.778 788.542 113.586 788.542 118.194C788.542 122.61 788.926 126.354 789.694 129.426C790.526 132.498 791.902 134.834 793.822 136.434C795.742 138.034 798.366 138.834 801.694 138.834ZM855.671 144.978C848.695 144.978 843.223 142.674 839.255 138.066C835.351 133.458 833.399 126.994 833.399 118.674C833.399 109.714 835.255 102.962 838.967 98.418C842.679 93.874 847.927 91.602 854.711 91.602C860.919 91.602 865.783 93.522 869.303 97.362C872.887 101.202 874.679 106.93 874.679 114.546V118.962H842.711C842.839 123.634 843.447 127.442 844.535 130.386C845.623 133.33 847.191 135.506 849.239 136.914C851.351 138.258 853.943 138.93 857.015 138.93C859.255 138.93 861.239 138.61 862.967 137.97C864.759 137.33 866.295 136.498 867.575 135.474C868.919 134.45 869.975 133.362 870.743 132.21C871.191 132.402 871.607 132.786 871.991 133.362C872.375 133.938 872.567 134.642 872.567 135.474C872.567 136.754 871.959 138.13 870.743 139.602C869.527 141.074 867.671 142.354 865.175 143.442C862.679 144.466 859.511 144.978 855.671 144.978ZM864.983 113.778C864.983 110.386 864.631 107.41 863.927 104.85C863.287 102.29 862.199 100.306 860.663 98.898C859.127 97.49 857.079 96.786 854.519 96.786C852.151 96.786 850.135 97.458 848.471 98.802C846.871 100.082 845.591 101.97 844.631 104.466C843.735 106.962 843.159 110.066 842.903 113.778H864.983ZM904.358 144.978C900.134 144.978 896.55 144.05 893.606 142.194C890.726 140.338 888.518 137.458 886.982 133.554C885.51 129.586 884.774 124.53 884.774 118.386C884.774 112.178 885.51 107.122 886.982 103.218C888.518 99.25 890.726 96.338 893.606 94.482C896.55 92.562 900.134 91.602 904.358 91.602C908.07 91.602 911.078 92.402 913.382 94.002C915.75 95.538 917.638 97.554 919.046 100.05H919.622C919.494 98.962 919.366 97.81 919.238 96.594C919.174 95.378 919.11 94.162 919.046 92.946C919.046 91.666 919.046 90.514 919.046 89.49V81.618C919.046 79.698 918.662 78.29 917.894 77.394C917.19 76.434 916.23 75.826 915.014 75.57C913.862 75.25 912.582 75.09 911.174 75.09H910.406V71.058H928.07V133.458C928.07 135.314 928.422 136.722 929.126 137.682C929.894 138.642 930.854 139.282 932.006 139.602C933.222 139.858 934.534 139.986 935.942 139.986H936.71V144.018H920.486L919.43 135.378H919.046C917.638 138.322 915.782 140.658 913.478 142.386C911.174 144.114 908.134 144.978 904.358 144.978ZM905.99 138.834C910.982 138.834 914.406 137.17 916.262 133.842C918.118 130.45 919.046 125.298 919.046 118.386C919.046 113.906 918.63 110.162 917.798 107.154C917.03 104.082 915.686 101.746 913.766 100.146C911.91 98.546 909.286 97.746 905.894 97.746C903.078 97.746 900.806 98.546 899.078 100.146C897.35 101.746 896.07 104.082 895.238 107.154C894.47 110.226 894.086 114.002 894.086 118.482C894.086 123.026 894.47 126.802 895.238 129.81C896.07 132.818 897.35 135.09 899.078 136.626C900.87 138.098 903.174 138.834 905.99 138.834ZM941.631 144.018V139.986H941.919C943.391 139.986 944.703 139.826 945.855 139.506C947.071 139.186 948.031 138.546 948.735 137.586C949.439 136.562 949.791 135.058 949.791 133.074V103.122C949.791 101.202 949.407 99.794 948.639 98.898C947.935 97.938 946.975 97.33 945.759 97.074C944.607 96.754 943.327 96.594 941.919 96.594H941.631V92.562H956.415L958.239 102.066H958.719C959.551 100.146 960.447 98.386 961.407 96.786C962.367 95.186 963.647 93.938 965.247 93.042C966.847 92.082 969.055 91.602 971.871 91.602C975.391 91.602 977.983 92.21 979.647 93.426C981.375 94.642 982.239 96.37 982.239 98.61C982.239 100.594 981.535 102.226 980.127 103.506C978.783 104.786 976.511 105.426 973.311 105.426C973.311 103.634 973.151 102.194 972.831 101.106C972.511 100.018 971.967 99.218 971.199 98.706C970.495 98.194 969.503 97.938 968.223 97.938C966.431 97.938 964.927 98.642 963.711 100.05C962.495 101.458 961.535 103.25 960.831 105.426C960.127 107.602 959.615 109.874 959.295 112.242C958.975 114.546 958.815 116.626 958.815 118.482V133.554C958.815 135.41 959.167 136.818 959.871 137.778C960.639 138.674 961.599 139.282 962.751 139.602C963.967 139.858 965.279 139.986 966.687 139.986H969.375V144.018H941.631ZM1011.2 144.978C1004.29 144.978 998.85 142.77 994.882 138.354C990.914 133.938 988.93 127.218 988.93 118.194C988.93 109.234 990.818 102.578 994.594 98.226C998.434 93.81 1004.07 91.602 1011.49 91.602C1018.4 91.602 1023.84 93.81 1027.81 98.226C1031.78 102.578 1033.76 109.234 1033.76 118.194C1033.76 127.218 1031.84 133.938 1028 138.354C1024.23 142.77 1018.63 144.978 1011.2 144.978ZM1011.39 139.986C1014.59 139.986 1017.15 139.186 1019.07 137.586C1020.99 135.922 1022.37 133.458 1023.2 130.194C1024.03 126.93 1024.45 122.93 1024.45 118.194C1024.45 113.394 1024 109.426 1023.11 106.29C1022.27 103.09 1020.9 100.69 1018.98 99.09C1017.06 97.49 1014.5 96.69 1011.3 96.69C1008.1 96.69 1005.54 97.49 1003.62 99.09C1001.7 100.69 1000.32 103.09 999.49 106.29C998.658 109.426 998.242 113.394 998.242 118.194C998.242 122.93 998.658 126.93 999.49 130.194C1000.39 133.458 1001.79 135.922 1003.71 137.586C1005.63 139.186 1008.19 139.986 1011.39 139.986ZM1051.06 144.69C1049.39 144.69 1047.95 144.21 1046.74 143.25C1045.58 142.29 1045.01 140.594 1045.01 138.162C1045.01 135.666 1045.58 133.97 1046.74 133.074C1047.95 132.114 1049.39 131.634 1051.06 131.634C1052.72 131.634 1054.13 132.114 1055.28 133.074C1056.5 133.97 1057.1 135.666 1057.1 138.162C1057.1 140.594 1056.5 142.29 1055.28 143.25C1054.13 144.21 1052.72 144.69 1051.06 144.69ZM1090.61 144.978C1083.63 144.978 1078.16 142.674 1074.19 138.066C1070.29 133.458 1068.34 126.994 1068.34 118.674C1068.34 109.714 1070.19 102.962 1073.9 98.418C1077.62 93.874 1082.86 91.602 1089.65 91.602C1095.86 91.602 1100.72 93.522 1104.24 97.362C1107.82 101.202 1109.62 106.93 1109.62 114.546V118.962H1077.65C1077.78 123.634 1078.38 127.442 1079.47 130.386C1080.56 133.33 1082.13 135.506 1084.18 136.914C1086.29 138.258 1088.88 138.93 1091.95 138.93C1094.19 138.93 1096.18 138.61 1097.9 137.97C1099.7 137.33 1101.23 136.498 1102.51 135.474C1103.86 134.45 1104.91 133.362 1105.68 132.21C1106.13 132.402 1106.54 132.786 1106.93 133.362C1107.31 133.938 1107.5 134.642 1107.5 135.474C1107.5 136.754 1106.9 138.13 1105.68 139.602C1104.46 141.074 1102.61 142.354 1100.11 143.442C1097.62 144.466 1094.45 144.978 1090.61 144.978ZM1099.92 113.778C1099.92 110.386 1099.57 107.41 1098.86 104.85C1098.22 102.29 1097.14 100.306 1095.6 98.898C1094.06 97.49 1092.02 96.786 1089.46 96.786C1087.09 96.786 1085.07 97.458 1083.41 98.802C1081.81 100.082 1080.53 101.97 1079.57 104.466C1078.67 106.962 1078.1 110.066 1077.84 113.778H1099.92ZM1134.59 144.978C1131.39 144.978 1128.61 144.594 1126.24 143.826C1123.87 143.058 1122.02 141.938 1120.67 140.466C1119.39 138.93 1118.75 137.042 1118.75 134.802C1118.75 133.074 1119.1 131.73 1119.81 130.77C1120.51 129.81 1121.31 129.138 1122.21 128.754C1123.17 128.37 1124.03 128.178 1124.8 128.178C1124.8 130.418 1125.12 132.466 1125.76 134.322C1126.4 136.178 1127.49 137.65 1129.02 138.738C1130.56 139.826 1132.61 140.37 1135.17 140.37C1138.56 140.37 1141.15 139.57 1142.94 137.97C1144.8 136.306 1145.73 134.194 1145.73 131.634C1145.73 130.034 1145.38 128.722 1144.67 127.698C1144.03 126.674 1142.85 125.682 1141.12 124.722C1139.46 123.698 1137.06 122.514 1133.92 121.17C1130.66 119.698 1127.94 118.29 1125.76 116.946C1123.65 115.538 1122.05 113.938 1120.96 112.146C1119.94 110.29 1119.42 107.986 1119.42 105.234C1119.42 100.882 1121.06 97.554 1124.32 95.25C1127.65 92.882 1132.03 91.698 1137.47 91.698C1140.54 91.698 1143.1 92.114 1145.15 92.946C1147.26 93.714 1148.83 94.77 1149.86 96.114C1150.94 97.458 1151.49 98.93 1151.49 100.53C1151.49 102.258 1150.88 103.666 1149.66 104.754C1148.51 105.778 1146.82 106.29 1144.58 106.29C1144.58 103.09 1143.9 100.594 1142.56 98.802C1141.22 97.01 1139.14 96.114 1136.32 96.114C1134.14 96.114 1132.38 96.434 1131.04 97.074C1129.7 97.714 1128.7 98.61 1128.06 99.762C1127.49 100.914 1127.2 102.258 1127.2 103.794C1127.2 105.394 1127.58 106.738 1128.35 107.826C1129.18 108.914 1130.46 109.938 1132.19 110.898C1133.98 111.794 1136.29 112.818 1139.1 113.97C1142.5 115.378 1145.25 116.786 1147.36 118.194C1149.47 119.602 1151.01 121.234 1151.97 123.09C1152.99 124.946 1153.5 127.218 1153.5 129.906C1153.5 134.898 1151.78 138.674 1148.32 141.234C1144.86 143.73 1140.29 144.978 1134.59 144.978Z" fill="#403F3F"/>
<line x1="227" y1="4.37114e-08" x2="227" y2="183" stroke="#403F3F" stroke-width="2"/>
</svg>
